<svg xmlns="http://www.w3.org/2000/svg" viewBox="0 0 64 64" width="64" height="64" role="img" aria-label="Código do Lucro">
  <rect width="64" height="64" rx="10" fill="url(#grad)"/>
  <defs>
    <linearGradient id="grad" x1="0" y1="0" x2="1" y2="1">
      <stop offset="0" stop-color="#1E3A8A"/>
      <stop offset="1" stop-color="#0F265A"/>
    </linearGradient>
  </defs>
  <!-- Moldura de código -->
  <path d="M16 12c-4 0-8 4-8 8v24c0 4 4 8 8 8h4v-4h-4a4 4 0 0 1-4-4V20a4 4 0 0 1 4-4h4v-4h-4zm32 0v4h4a4 4 0 0 1 4 4v24a4 4 0 0 1-4 4h-4v4h4c4 0 8-4 8-8V20c0-4-4-8-8-8h-4z" fill="#FBBF24"/>
  <!-- Gráfico de barras -->
  <rect x="20" y="34" width="6" height="14" rx="2" fill="#fff"/>
  <rect x="30" y="28" width="6" height="20" rx="2" fill="#fff"/>
  <rect x="40" y="22" width="6" height="26" rx="2" fill="#fff"/>
  <!-- Seta -->
  <path d="M20 22l12-8 12 8" stroke="#fff" stroke-width="3" stroke-linecap="round" stroke-linejoin="round"/>
</svg>
